HIERARCHY
ROOT Hips
{
	OFFSET 0.00000 0.00000 0.00000
	CHANNELS 6 Xposition Yposition Zposition Zrotation Yrotation Xrotation 
	JOINT LHipJoint
	{
		OFFSET 0 0 0
		CHANNELS 3 Zrotation Yrotation Xrotation
		JOINT LeftUpLeg
		{
			OFFSET 1.62329 -1.80800 0.67318
			CHANNELS 3 Zrotation Yrotation Xrotation
			JOINT LeftLeg
			{
				OFFSET 2.57139 -7.06484 0.00000
				CHANNELS 3 Zrotation Yrotation Xrotation
				JOINT LeftFoot
				{
					OFFSET 2.52017 -6.92413 0.00000
					CHANNELS 3 Zrotation Yrotation Xrotation
					JOINT LeftToeBase
					{
						OFFSET 0.23295 -0.64001 2.10214
						CHANNELS 3 Zrotation Yrotation Xrotation
						End Site
						{
							OFFSET 0.00000 -0.00000 1.10139
						}
					}
				}
			}
		}
	}
	JOINT RHipJoint
	{
		OFFSET 0 0 0
		CHANNELS 3 Zrotation Yrotation Xrotation
		JOINT RightUpLeg
		{
			OFFSET -1.48061 -1.80800 0.67318
			CHANNELS 3 Zrotation Yrotation Xrotation
			JOINT RightLeg
			{
				OFFSET -2.63258 -7.23296 0.00000
				CHANNELS 3 Zrotation Yrotation Xrotation
				JOINT RightFoot
				{
					OFFSET -2.54779 -7.00000 0.00000
					CHANNELS 3 Zrotation Yrotation Xrotation
					JOINT RightToeBase
					{
						OFFSET -0.23067 -0.63376 2.12161
						CHANNELS 3 Zrotation Yrotation Xrotation
						End Site
						{
							OFFSET -0.00000 -0.00000 1.11000
						}
					}
				}
			}
		}
	}
	JOINT LowerBack
	{
		OFFSET 0 0 0
		CHANNELS 3 Zrotation Yrotation Xrotation
		JOINT Spine
		{
			OFFSET -0.02108 2.07573 -0.16981
			CHANNELS 3 Zrotation Yrotation Xrotation
			JOINT Spine1
			{
				OFFSET 0.05070 2.08439 -0.03141
				CHANNELS 3 Zrotation Yrotation Xrotation
				JOINT Neck
				{
					OFFSET 0 0 0
					CHANNELS 3 Zrotation Yrotation Xrotation
					JOINT Neck1
					{
						OFFSET -0.10731 1.60408 0.31370
						CHANNELS 3 Zrotation Yrotation Xrotation
						JOINT Head
						{
							OFFSET 0.08411 1.65679 -0.30822
							CHANNELS 3 Zrotation Yrotation Xrotation
							End Site
							{
								OFFSET 0.03911 1.69149 -0.14146
							}
						}
					}
				}
				JOINT LeftShoulder
				{
					OFFSET 0 0 0
					CHANNELS 3 Zrotation Yrotation Xrotation
					JOINT LeftArm
					{
						OFFSET 3.52315 0.73219 -0.54694
						CHANNELS 3 Zrotation Yrotation Xrotation
						JOINT LeftForeArm
						{
							OFFSET 5.32462 -0.00000 -0.00000
							CHANNELS 3 Zrotation Yrotation Xrotation
							JOINT LeftHand
							{
								OFFSET 3.48402 -0.00000 -0.00000
								CHANNELS 3 Zrotation Yrotation Xrotation
								JOINT LeftFingerBase
								{
									OFFSET 0 0 0
									CHANNELS 3 Zrotation Yrotation Xrotation
									JOINT LeftHandIndex1
									{
										OFFSET 0.57248 -0.00000 -0.00000
										CHANNELS 3 Zrotation Yrotation Xrotation
										End Site
										{
											OFFSET 0.46154 -0.00000 -0.00000
										}
									}
								}
								JOINT LThumb
								{
									OFFSET 0 0 0
									CHANNELS 3 Zrotation Yrotation Xrotation
									End Site
									{
										OFFSET 0.46859 -0.00000 0.46859
									}
								}
							}
						}
					}
				}
				JOINT RightShoulder
				{
					OFFSET 0 0 0
					CHANNELS 3 Zrotation Yrotation Xrotation
					JOINT RightArm
					{
						OFFSET -3.41766 0.93592 -0.10019
						CHANNELS 3 Zrotation Yrotation Xrotation
						JOINT RightForeArm
						{
							OFFSET -5.33589 -0.00000 -0.00000
							CHANNELS 3 Zrotation Yrotation Xrotation
							JOINT RightHand
							{
								OFFSET -3.64134 -0.00000 -0.00000
								CHANNELS 3 Zrotation Yrotation Xrotation
								JOINT RightFingerBase
								{
									OFFSET 0 0 0
									CHANNELS 3 Zrotation Yrotation Xrotation
									JOINT RightHandIndex1
									{
										OFFSET -0.73481 -0.00000 -0.00000
										CHANNELS 3 Zrotation Yrotation Xrotation
										End Site
										{
											OFFSET -0.59242 -0.00000 -0.00000
										}
									}
								}
								JOINT RThumb
								{
									OFFSET 0 0 0
									CHANNELS 3 Zrotation Yrotation Xrotation
									End Site
									{
										OFFSET -0.60147 -0.00000 0.60147
									}
								}
							}
						}
					}
				}
			}
		}
	}
}
MOTION
Frames: 12
Frame Time: 0.0210526
0.00 0.00 0.00 -11.0984 -102.6360 7.8146 0.0000 0.0000 0.0000 -17.8497 -2.6067 -5.3829 4.0693 12.2521 36.6296 1.1975 -11.6539 -20.0001 1.2545 -7.1007 -20.0140 0.0000 0.0000 0.0000 14.5413 1.2113 -13.6729 -8.6299 -16.5636 54.8013 0.3332 18.4481 -9.7270 -0.0588 -1.5642 4.3027 -0.9444 1.7085 1.4347 -4.4811 2.1025 -0.8380 -4.1412 0.9991 -1.5318 -12.6907 -8.6914 -9.0557 11.9776 -10.5841 -17.6538 5.6191 -5.3050 -2.4623 -0.0000 0.0000 0.0000 -76.9144 8.7161 34.2652 45.9992 -51.2487 -23.0154 -0.0000 0.0000 -10.4145 23.5558 16.4512 7.0385 -7.1250 0.0000 -0.0000 -4.0948 47.7927 -0.2826 -0.0000 0.0000 0.0000 -2.3023 60.9076 -11.5446 -27.5427 38.6918 -9.8365 0.0000 0.0000 13.9163 -16.8447 2.2078 -0.6683 7.1250 -0.0000 -0.0000 7.4895 -27.6486 3.1839
0.00 0.00 0.00 -10.5818 -104.3150 6.9711 0.0000 0.0000 0.0000 -18.0349 -2.1530 -4.7427 3.9286 12.0647 35.9613 1.0525 -12.0095 -18.9546 1.4715 -7.6654 -21.7022 0.0000 0.0000 0.0000 12.9109 0.6281 -15.9520 -9.4103 -17.0646 57.4986 0.8088 17.7765 -2.3881 -0.1372 -2.3873 6.5773 -1.5887 2.2950 1.6819 -3.5417 2.9088 -0.6470 -2.8316 1.4253 -1.5022 -15.8873 -8.6698 -10.2602 13.1763 -10.1266 -18.6490 6.5178 -4.9326 -2.4064 -0.0000 -0.0000 0.0000 -78.5309 5.2432 34.6427 42.3739 -49.4151 -20.2240 -0.0000 0.0000 -8.0518 24.1119 16.4418 7.2198 -7.1250 0.0000 -0.0000 -3.5605 47.8647 -0.2520 -0.0000 -0.0000 0.0000 39.7027 53.6792 25.2534 -34.3290 44.3270 -14.3425 0.0000 0.0000 15.1903 -19.9776 5.2446 -1.9032 7.1250 -0.0000 -0.0000 5.0007 -24.4029 2.4970
0.00 0.00 0.00 -10.8003 -104.8670 7.3848 0.0000 0.0000 0.0000 -18.2817 -2.2456 -3.3925 3.4412 11.3772 33.5628 1.0602 -10.3012 -18.6890 1.5493 -7.8565 -22.2790 0.0000 0.0000 0.0000 10.5554 1.0335 -18.7215 -10.1690 -17.5038 60.0518 1.1217 19.5062 0.1982 -0.0435 1.3466 -3.7030 -2.9094 2.6948 2.4683 -2.8052 3.4205 0.0969 -1.3715 1.6955 -1.2826 -16.3148 -8.6384 -13.0406 13.6291 -9.8058 -21.1750 6.7718 -4.7699 -2.7745 -0.0000 -0.0000 0.0000 -78.6468 4.3859 35.1121 45.5426 -51.0316 -22.6599 -0.0000 0.0000 -6.9422 23.7991 16.3628 7.0826 -7.1250 0.0000 -0.0000 -3.8439 47.7337 -0.2596 -0.0000 -0.0000 0.0000 66.5130 33.7347 40.2200 -34.8857 44.7303 -14.7328 0.0000 0.0000 12.7520 -21.8826 5.7078 -2.2875 7.1250 -0.0000 -0.0000 3.5793 -23.8341 1.8311
0.00 0.00 0.00 -90.7528 -93.8145 94.8913 0.0000 0.0000 0.0000 -11.2299 -8.6519 -16.5654 4.7108 13.0505 39.5578 0.7036 -5.0200 -14.9461 1.6628 -8.1254 -23.0955 0.0000 0.0000 0.0000 9.4522 9.8161 -15.3439 -4.6446 -12.9720 39.2637 -1.6580 7.0070 -23.0839 -0.0035 -0.3840 1.0550 -1.5868 0.7050 6.9291 3.2871 0.9020 0.1196 4.2190 0.4911 -3.8449 -18.0049 -5.2765 -19.2088 9.1011 -5.3963 -27.6290 6.0294 -2.2863 -4.9734 -0.0000 -0.0000 0.0000 -71.4867 -0.6180 34.8003 83.3321 -59.8313 -54.2287 -0.0000 0.0000 -3.0122 25.8402 17.6707 8.3627 -7.1250 0.0000 -0.0000 -2.1299 49.4603 -0.2343 -0.0000 -0.0000 0.0000 79.3263 -11.6543 17.8325 -31.4024 42.0656 -12.3386 0.0000 -0.0000 -7.7346 -31.5595 -0.9371 0.5756 7.1250 -0.0000 -0.0000 -3.9764 -31.0653 -1.3571
0.00 0.00 0.00 -98.9166 -94.5823 101.8080 0.0000 0.0000 0.0000 -13.7223 -4.3417 -19.0803 6.1739 14.5948 45.6759 0.5392 -9.0439 -13.6302 1.1958 -6.9385 -19.5334 0.0000 0.0000 0.0000 9.7030 8.7929 -14.0982 -4.5461 -12.8536 38.8229 -1.6207 6.4528 -22.8428 -0.0117 0.6994 -1.9221 -2.0667 0.9345 6.5409 3.3175 1.1658 0.4764 4.4995 0.6162 -3.2898 -18.2299 -5.1405 -19.3167 8.9516 -5.0254 -26.6209 5.9787 -2.0582 -4.6746 -0.0000 -0.0000 0.0000 -64.5390 -8.4360 31.2570 102.0303 -59.4460 -70.3992 -0.0000 0.0000 -7.2873 24.8176 21.7261 9.7137 -7.1250 0.0000 -0.0000 -4.1656 53.6344 -0.8856 -0.0000 -0.0000 0.0000 73.7383 -5.6110 20.7815 -29.4920 40.4540 -11.0785 0.0000 -0.0000 -5.6925 -28.2597 0.8418 -0.4525 7.1250 -0.0000 -0.0000 -1.3209 -29.0230 -0.5143
0.00 0.00 0.00 -90.4782 -94.8240 91.8452 0.0000 0.0000 0.0000 -17.6119 1.7124 -21.4989 7.8561 16.0124 52.0429 0.0139 -12.6241 -9.0407 1.6502 -8.0960 -23.0061 0.0000 0.0000 0.0000 9.7427 8.4217 -13.0874 -4.6622 -12.9929 39.3421 -1.4955 8.4374 -21.8914 -0.0006 -0.1597 0.4388 -2.4307 1.1993 6.0916 3.7916 1.5073 0.4198 5.1784 0.7917 -3.1523 -17.0653 -4.3153 -19.9354 8.1217 -3.9107 -24.5260 5.4553 -1.5739 -4.0815 0.0000 -0.0000 0.0000 -42.1417 -22.5449 13.3097 120.3306 -56.2212 -85.9338 -0.0000 0.0000 -9.9516 22.3264 23.2424 9.2053 -7.1250 0.0000 -0.0000 -7.2638 54.7379 -1.7444 0.0000 -0.0000 0.0000 66.3256 3.8601 21.6231 -25.8165 37.0270 -8.7769 0.0000 0.0000 1.4869 -25.2611 1.7803 -0.8399 7.1250 -0.0000 -0.0000 1.0188 -28.0108 0.4210
0.00 0.00 0.00 -87.6599 -94.7341 88.1738 0.0000 0.0000 0.0000 -19.7750 3.0130 -21.2504 8.0374 16.1467 52.6972 -0.4039 -13.7079 -3.4512 1.5528 -7.8649 -22.3044 0.0000 0.0000 0.0000 9.7023 7.4836 -12.7143 -4.7381 -13.0827 39.6787 -1.3472 9.4129 -20.8369 -0.0068 -0.5328 1.4640 -3.3189 1.4495 6.1126 4.0376 1.8012 -0.0510 5.9185 0.9800 -3.7233 -15.1350 -3.5904 -19.7370 7.6499 -3.1885 -23.2257 4.9624 -1.3383 -3.7736 -0.0000 -0.0000 0.0000 -15.6338 -33.0135 -8.1563 105.7177 -59.0456 -73.5683 -0.0000 0.0000 -3.9986 23.4865 22.2070 9.3266 -7.1250 0.0000 -0.0000 -5.6949 53.8847 -1.2470 -0.0000 -0.0000 0.0000 63.1186 7.1476 19.7580 -25.1509 36.3578 -8.3792 0.0000 0.0000 3.9647 -26.2194 2.0723 -1.0202 7.1250 -0.0000 -0.0000 0.2808 -27.6700 0.1183
0.00 0.00 0.00 -90.0270 -94.6873 90.1136 0.0000 0.0000 0.0000 -21.0341 2.9961 -20.6170 7.8778 16.0287 52.1215 -0.4744 -13.4959 -1.4297 1.0972 -6.6563 -18.7009 0.0000 0.0000 0.0000 9.5404 7.0455 -12.2868 -4.7197 -13.0611 39.5975 -1.3175 9.8139 -20.6485 -0.0078 -0.5706 1.5680 -4.0920 1.3624 6.4844 4.2216 1.6371 -0.5201 6.5734 0.9493 -4.4326 -13.8517 -3.0738 -20.0287 7.2445 -2.6270 -22.0266 4.5966 -1.1371 -3.4191 0.0000 0.0000 0.0000 -0.1231 -35.7488 -19.9169 87.2065 -59.9705 -57.5810 -0.0000 0.0000 -4.6052 23.2860 21.4460 8.9425 -7.1250 0.0000 -0.0000 -5.6548 53.0466 -1.1223 0.0000 0.0000 0.0000 61.7922 7.8210 18.8623 -25.4168 36.6270 -8.5373 0.0000 0.0000 4.6495 -26.8827 2.0173 -1.0223 7.1250 -0.0000 -0.0000 -0.2312 -27.7183 -0.0971
0.00 0.00 0.00 -64.4640 -94.8138 63.6519 0.0000 0.0000 0.0000 -27.6537 -3.2300 -10.0373 4.9900 13.3725 40.7794 0.1550 0.6927 -7.7225 2.7428 -10.2666 -29.8443 0.0000 0.0000 0.0000 5.2192 2.9760 -13.9089 -4.7462 -13.0921 39.7142 0.0626 9.1387 -5.1862 -0.1937 -2.8341 7.8173 -9.1911 0.7214 7.3666 9.6550 0.4308 -3.3431 16.2472 0.9562 -8.0391 -18.5692 -1.9248 -22.7221 8.3865 0.5929 -15.3183 5.7353 0.7086 -1.3621 -0.0000 0.0000 0.0000 58.7748 -33.3016 -94.9873 9.2072 -15.4901 -1.2549 -0.0000 -0.0000 31.7500 13.4537 25.7388 5.9310 -7.1250 0.0000 -0.0000 -17.5219 55.4782 -4.6092 -0.0000 0.0000 0.0000 49.7615 6.6021 16.1217 -31.4063 42.0687 -12.3412 0.0000 0.0000 7.6778 -26.4120 5.3820 -2.6672 7.1250 -0.0000 -0.0000 0.2081 -23.9748 0.1056
0.00 0.00 0.00 -16.9029 -97.6893 16.9188 0.0000 0.0000 0.0000 -28.1388 -4.4769 -2.6480 2.0711 9.0126 25.8349 -0.0397 9.0411 5.5727 2.5915 -10.0024 -28.9844 0.0000 0.0000 0.0000 1.1935 6.3896 -16.7401 -5.2465 -13.6561 41.8768 0.0152 7.5309 -4.9320 -0.0039 0.4038 -1.1094 -5.5588 0.9209 4.3455 13.7176 0.9550 -4.9134 19.1278 1.1192 -8.3061 -21.4440 -0.8539 -22.0774 8.5243 2.7640 -10.5616 6.2800 1.8278 -0.3318 0.0000 -0.0000 0.0000 55.8771 -29.6141 -91.7391 9.7980 -16.4230 -1.4173 -0.0000 -0.0000 28.5463 14.8003 29.2735 7.3616 -7.1250 0.0000 -0.0000 -18.3633 59.1330 -6.4771 0.0000 -0.0000 0.0000 46.2137 -3.0921 12.7269 -43.6472 50.0883 -21.1960 0.0000 -0.0000 -3.7567 -28.1081 3.4803 -1.8571 7.1250 -0.0000 -0.0000 -1.1299 -26.0353 -0.5194
0.00 0.00 0.00 -27.5812 -93.9724 26.3904 0.0000 0.0000 0.0000 -28.5867 -4.5821 1.9490 1.2756 7.1578 20.1838 0.1219 10.2280 9.0116 2.7610 -10.2977 -29.9463 0.0000 0.0000 0.0000 -0.2690 8.2144 -13.8068 -5.8290 -14.2606 44.2916 0.1612 -8.5369 1.9355 -0.4040 -4.0805 11.3032 -6.6443 -0.8404 3.0551 12.3875 -1.4757 -4.3316 18.1084 -0.2886 -5.9661 -19.3996 -2.1752 -26.0936 11.2158 1.4603 -6.5102 6.8295 1.2236 1.7200 -0.0000 -0.0000 0.0000 57.9241 -29.6742 -84.2607 10.4588 -17.4540 -1.6098 -0.0000 -0.0000 28.7628 16.8815 27.8618 8.0721 -7.1250 0.0000 -0.0000 -15.2414 58.2423 -5.0130 -0.0000 -0.0000 0.0000 11.6999 7.6240 -15.9778 -65.5509 57.6163 -38.9959 0.0000 -0.0000 -5.2129 -34.3630 7.4058 -5.0367 7.1250 -0.0000 -0.0000 -5.4605 -21.0488 -3.1490
0.00 0.00 0.00 -20.9002 -94.8196 18.6288 0.0000 0.0000 0.0000 -26.8515 -3.7055 0.4848 1.8285 8.4994 24.2415 0.0416 9.3626 7.2811 2.6196 -10.0522 -29.1459 0.0000 0.0000 0.0000 5.7737 9.7262 -12.3186 -5.5966 -14.0257 43.3406 -0.8996 -6.1337 16.9142 -0.3011 -3.5282 9.7529 -5.2023 -1.2079 4.5865 8.1998 -1.7785 -5.7725 12.2067 -0.3453 -8.3802 -12.9206 -1.1307 -25.5875 12.1242 0.9543 -3.8201 6.0449 0.9568 2.6781 -0.0000 0.0000 0.0000 57.1432 -29.6420 -71.5885 11.3307 -18.7934 -1.8811 -0.0000 -0.0000 20.9900 15.1391 30.6861 7.8613 -7.1250 0.0000 -0.0000 -19.0417 60.5462 -7.3733 -0.0000 0.0000 0.0000 -31.6443 22.8478 -46.9570 -41.1580 48.7412 -19.3053 0.0000 -0.0000 -1.6408 -36.5927 6.9184 -5.1106 7.1250 -0.0000 -0.0000 -7.1135 -21.4123 -4.0563
